# xmcd
#
# Track frame offsets: 
#        187
#        25257
#        52932
#        66917
#        91647
#        110600
#        125822
#        138472
#        155457
#        159587
#        181077
#        200262
#        208307
#        227257
#        246717
#        262477
#        280670
#        298752
#        317555
#
# Disc length: 4406 seconds
#
# Revision: 6
# Processed by: cddbd v1.5.2PL0 Copyright (c) Steve Scherf et al.
# Submitted via: ExactAudioCopy v0.99pb5
#
DISCID=1d113413
DTITLE=BB King - King Of The Blues [Disc 4]
DYEAR=1992
DGENRE=Blues
TTITLE0=Let The Good Times Roll
TTITLE1=Don't You Lie To Me
TTITLE2=Mother Fuyer
TTITLE3=Never Make A Move Too Soon
TTITLE4=When It All Comes Down (I'll Still Be Around)
TTITLE5=Better Not Look Down
TTITLE6=Caldonia
TTITLE7=There Must Be A Better World Somewhere
TTITLE8=Play With Your Poodle
TTITLE9=Darlin' You Know I Love You
TTITLE10=Inflation Blues
TTITLE11=Make Love To Me
TTITLE12=Into The Night
TTITLE13=Six Silver Strings
TTITLE14=When Love Comes To Town
TTITLE15=Right Time, Wrong Place
TTITLE16=Many Miles Travelled
TTITLE17=I'm Moving On
TTITLE18=Since I Met You Baby
EXTD=
EXTT0=Live with Bobby Bland, ABC, 1976
EXTT1=ABC, 1976
EXTT2=ABC, 1976
EXTT3=ABC, 1977
EXTT4=ABC, 1977
EXTT5=MCA, 1978 and 1979
EXTT6=Life "Ole Miss," MCA, 1979
EXTT7=MCA, 1980
EXTT8=1982, Solo, Previously unreleased
EXTT9=MCA, 1982
EXTT10=MCA, 1982
EXTT11=Rehearsal solo with piano, 1982, previously unreleased
EXTT12=MCA, 1985, from the soundtrak "Into The Night"
EXTT13=MCA, 1984
EXTT14=With U2, 1987, previously unreleased on LP
EXTT15=MCA, 1990, from soundtrack "Air America" with Bonnie Raitt
EXTT16=1991, previously unreleased
EXTT17=MCA, 1991
EXTT18=With Gary Moore, Charisma/Virgin Records, 1991
PLAYORDER=
